PathFileType	4	(X/Y/Z)	C:\Users\°ÂÌØÂü\Desktop\20210112\bx_y_10_902-Unnamed.trc
DataRate	CameraRate	NumFrames	NumMarkers	Units	OrigDataRate	OrigDataStartFrame	OrigNumFrames
50.00	50.00	       9	0	mm	50.00	194	       516
Frame#	Time	
		

194	3.860	-692.60175	207.02911	536.14917	-664.34674	279.53680	880.93115	-723.00482	-49.33883	723.05560	-698.52142	275.75769	1548.18726	-676.65436	51.94207	159.90735	-609.88763	214.03098	819.27087	-747.24054	248.14406	579.60858	-786.32440	257.33279	504.02914	-710.05151	144.57980	576.92938	-730.49146	-72.25787	1550.52698	-664.73267	-70.74538	160.71866	-714.71759	154.35086	218.87346	-773.06586	225.68483	203.98407	-623.29907	-80.60768	156.91429	-882.53522	296.16849	144.69659	-615.94708	212.05760	1070.65637	-604.30432	17.63684	168.70517	-560.70715	-39.86953	163.25418	-676.74335	174.92740	158.46159	-596.12408	222.73555	173.65894	-666.41626	299.61823	159.20535	-628.69458	307.27399	161.23331	-561.33881	260.02197	165.29668	-528.27649	304.05124	146.50403	-740.02966	103.35956	1849.11865	-710.10657	273.68063	753.36707	-631.57056	87.87822	1433.10974	-518.10248	-72.69279	143.08702	-719.75812	73.84633	217.95021	-825.89087	101.14101	1057.08398	-770.06232	-8.53506	207.20320	-796.89044	51.12433	174.14764	-798.74408	175.77228	183.04890	-779.42163	-33.25555	489.50272	-876.03320	-78.59757	141.50241	-743.94348	251.42123	647.77838	-722.18744	-28.82716	620.93219	-735.24609	-25.54344	570.07733	-683.86487	15.54257	522.58148	-627.66040	-12.46066	1054.94641	-706.01532	78.82097	577.22858	-684.11212	-66.09608	874.39038	-612.92603	-9.01602	808.73236	
195	3.880	-692.05725	206.76929	535.95416	-662.02094	279.81689	880.96686	-720.92944	-49.04519	723.10126	-700.86481	275.40826	1547.88342	-676.74243	51.96358	159.77620	-608.10663	213.33191	818.96289	-745.88702	247.64714	579.21143	-785.35120	257.01453	504.22293	-709.48700	144.45628	576.79028	-733.09430	-71.79584	1550.71790	-664.63495	-70.43828	160.44365	-714.53967	154.17442	218.66910	-773.14832	225.89087	204.35614	-623.13550	-80.48672	156.96216	-882.65271	296.18555	144.64310	-614.05988	211.08548	1070.59692	-604.32623	17.46259	168.51230	-560.76239	-39.85529	163.18449	-676.74335	174.92740	158.46159	-596.16919	222.77132	173.66585	-666.35272	299.54425	159.26413	-628.62909	307.11307	161.25421	-561.24054	260.08917	165.20961	-528.34100	304.16574	146.59477	-743.09460	103.25405	1849.17517	-707.94843	273.45175	753.33459	-633.28717	88.26963	1433.66052	-517.99585	-72.49760	143.20343	-719.81384	73.62046	217.68599	-823.76019	101.03004	1056.82104	-770.06873	-8.72821	207.38719	-796.80865	51.28178	173.89709	-798.83081	175.69150	183.10178	-779.56757	-34.25848	489.37515	-876.02472	-78.50606	141.58060	-742.01166	251.50665	647.65729	-720.93280	-28.52827	620.78564	-734.20569	-25.39992	569.73303	-683.01123	15.86736	522.44196	-625.73370	-12.83939	1054.81006	-704.84015	78.98185	576.79633				-611.75122	-8.94218	808.71362	
196	3.900	-690.61047	206.52513	536.34174	-659.89532	279.54547	880.71588	-719.71326	-49.20687	723.00604	-703.00720	275.26392	1547.77332	-676.47070	51.86361	159.63570	-606.08118	212.96945	818.64777	-744.58441	247.61412	579.28479	-784.27216	257.42740	504.06305	-707.64520	144.33597	577.03156	-734.92737	-71.72218	1550.61792	-664.66766	-70.79726	160.75751	-714.32874	154.15965	218.56456	-773.02393	225.47690	204.12878	-623.19116	-80.52471	157.10332	-882.61688	296.19727	144.63943	-612.20264	211.23109	1070.60449	-604.17810	17.63723	168.47697	-560.69019	-39.88085	163.28717	-676.56146	174.71664	158.58810	-596.06946	222.66310	173.54764	-666.26978	299.55750	159.32092	-628.67175	307.08240	161.38313	-561.26361	260.03073	165.21207	-528.24219	304.05014	146.45068	-746.05975	103.18708	1849.18237	-706.01794	273.55234	753.33582	-633.77148	88.48929	1433.68848	-518.08630	-72.59072	143.38210	-719.57574	74.08566	218.09834	-821.79999	101.51422	1057.09497	-770.04626	-8.63709	207.31815	-796.15546	51.26920	173.43507	-798.61963	175.73158	183.23073	-779.16626	-34.48379	489.61520	-876.02838	-78.54763	141.55200	-740.37695	251.38348	647.74426	-719.48120	-28.40905	620.71002	-733.00763	-25.27163	569.34192	-682.31732	15.49610	522.56964				-703.72601	78.89883	577.10077	-681.28406	-66.74341	874.63300	-610.46204	-9.00842	808.60419	
197	3.920	-689.41486	206.58098	536.08185	-658.57318	279.13361	880.36963	-717.58026	-48.96219	723.47070	-704.71155	275.23361	1547.44763	-676.59583	51.95955	159.53000	-604.45203	212.50420	818.62170	-743.31696	247.78493	579.38306	-783.22949	257.20087	504.35568	-707.06061	144.42841	576.88812	-736.23584	-71.35323	1550.49146	-664.76361	-70.62614	160.74445	-714.27637	154.01431	218.14261	-773.05316	225.40916	204.23927	-623.09845	-80.61560	157.19244	-882.48578	296.13718	144.66689	-610.66187	210.67825	1069.92346	-604.37927	17.43380	168.76210	-560.61755	-40.03029	163.18866	-676.65936	174.55385	158.57251	-596.06946	222.66310	173.54764	-666.30457	299.58167	159.35454	-628.57257	306.92249	161.27650	-561.28662	260.09039	165.28159	-528.24188	304.25183	146.46689	-748.37524	102.74663	1849.21582	-704.87366	273.78055	753.40527	-634.44318	88.82337	1434.41248	-518.04370	-72.75500	142.90813	-719.45001	73.90824	217.50021	-819.97888	101.16144	1057.19421	-769.95319	-8.42154	207.03867	-796.04559	51.18185	173.54878	-798.53198	175.47913	183.29091	-778.65680	-34.30436	489.71741	-876.04663	-78.59055	141.48270	-739.19556	251.68806	648.36218	-718.30072	-28.40691	620.79730	-732.40186	-25.39324	569.68073	-681.44128	15.56960	522.40674				-702.86206	79.17273	576.98962	-679.52112	-67.02515	874.32660	-608.70868	-9.02057	807.89453	
198	3.940	-689.04047	206.39627	535.81274	-657.15027	279.35654	880.27454	-716.53430	-50.08765	723.65747	-705.37366	275.85025	1547.83752	-676.59583	51.95955	159.53000	-603.57330	212.31680	818.71442	-742.57910	247.32426	579.28192	-782.39948	256.57718	503.99680	-706.42340	143.98868	576.87640	-737.46667	-71.17957	1550.31677	-664.69080	-70.60586	160.77126	-714.17230	153.87730	218.18756	-772.87677	225.24170	204.37534	-622.96521	-80.57077	157.16502	-882.50885	296.21451	144.71526	-608.76117	210.82243	1069.84924	-604.30725	17.63478	168.48869	-560.60516	-40.13556	163.19499	-676.54535	174.31702	158.80853	-595.95227	222.53249	173.44267	-666.28912	299.47031	159.32294	-628.53003	307.06995	161.35883	-561.24054	260.08917	165.20961	-528.24188	304.25183	146.46689	-750.73547	102.65192	1849.02051	-703.08765	273.95093	753.14215	-634.59851	88.55245	1434.51428	-518.13794	-72.53624	143.07372	-719.54266	74.21229	217.92935	-818.68280	100.75755	1057.64380	-770.25122	-8.53963	207.15871	-795.95123	51.33969	173.38504	-798.45105	175.16658	183.11162	-776.78851	-33.77330	489.67780	-876.03320	-78.59757	141.50241	-737.62225	251.51204	648.18695	-717.70709	-28.54272	620.86310	-731.70148	-25.34649	569.67493	-680.85046	15.86822	522.14423				-702.30518	78.98786	577.02521	-678.22137	-66.87951	873.87592	-607.40363	-9.12238	807.94318	
199	3.960	-688.57581	205.93414	535.91620	-655.96594	278.75406	880.15991	-715.53448	-49.73680	723.39722	-706.34302	275.62671	1547.71851	-676.45654	52.02767	159.47990	-602.08148	212.30009	818.45642	-741.82990	247.17616	579.80408	-781.90387	256.67862	504.86249	-705.79169	143.79260	577.06787	-738.36804	-71.64948	1550.07849	-664.83527	-70.43650	160.68060	-714.07214	153.81461	218.13057	-772.86865	225.08879	204.39694	-622.96521	-80.57077	157.16502	-882.56006	296.11014	144.61603				-604.40338	17.80029	168.27264	-560.61755	-40.03029	163.18866	-676.54535	174.31702	158.80853	-595.95227	222.53249	173.44267	-666.35272	299.54425	159.26413	-628.58984	307.09332	161.44090	-561.31567	260.08044	165.29422	-528.26862	304.27621	146.51570	-752.04639	102.86826	1849.04016	-702.48535	273.69394	753.14441	-634.66925	88.63126	1434.60510	-518.11487	-72.60732	142.98956	-719.41949	74.13145	217.78778	-817.08289	100.80640	1057.82239	-770.06799	-8.57653	207.21713	-796.02185	51.30763	173.48894	-798.26099	175.23746	183.33974	-776.59949	-33.93171	489.75027	-876.03320	-78.59757	141.50241	-736.49188	251.16449	648.03088	-715.14240	-29.73175	621.79913	-731.09729	-25.35283	569.61194	-680.77771	15.91924	522.07373				-701.26300	78.78243	576.99609	-676.63269	-67.49029	874.14740	-606.61469	-8.84473	807.82074	
200	3.980	-688.22235	206.13982	535.85968	-654.39917	278.89191	880.21277	-714.93109	-49.70099	723.37018	-707.44543	275.60104	1547.72168	-676.57043	52.11290	159.59177	-601.61127	212.09613	818.38336	-740.99268	246.99820	579.53552	-781.41400	256.61255	504.73459	-704.86511	143.54739	576.91766	-739.44409	-71.72318	1549.76123	-664.75934	-70.45147	160.51773	-714.02844	153.77925	217.98648	-772.70319	224.95705	204.39914	-623.05566	-80.66652	157.22969	-882.57764	296.19299	144.67506				-604.23334	17.79827	167.97058	-560.70221	-39.98862	163.24640	-676.54535	174.31702	158.80853	-595.87189	222.50890	173.53343	-666.28912	299.47031	159.32294	-628.53711	306.88675	161.37772	-561.20374	260.13272	165.23546	-528.37244	304.34390	146.43837	-753.08667	102.43767	1848.90076	-701.47198	273.69745	753.03021	-635.09747	88.69219	1434.84839	-518.12482	-72.53063	142.91077	-719.47534	74.23009	217.75246	-815.21027	100.40556	1057.57520	-770.19214	-8.59481	207.21194	-796.70386	51.43514	173.94191	-798.30029	175.17036	183.34109	-776.44037	-34.27669	489.73611	-876.13251	-78.56548	141.43300	-735.89032	250.94623	648.13300	-715.06604	-29.66308	621.51593	-730.82983	-25.56550	569.70502	-680.55792	16.04682	521.95782				-701.45105	79.02490	576.40796	-675.76758	-66.65185	873.14410	-605.46973	-8.76926	807.20148	
201	4.000	-687.42102	205.77255	535.89899	-653.86688	278.99374	880.18231	-714.25928	-49.87349	723.40723	-708.13666	275.52509	1547.73511	-676.61176	52.04869	159.49820	-600.63849	211.90250	818.31403	-740.58307	246.77640	579.50690	-780.97144	256.44717	505.02405	-704.65015	143.52565	576.59528	-739.60492	-71.83759	1549.45703	-664.83276	-70.37917	160.66478	-714.02844	153.77925	217.98648	-772.77850	225.04088	204.47620	-623.09155	-80.65762	157.20689	-882.50006	296.18253	144.69447				-604.22687	17.72127	168.10962	-560.70221	-39.98862	163.24640	-676.56604	174.46169	158.40811	-595.74609	222.41844	173.54933	-666.18323	299.51437	159.49171	-628.56604	306.94583	161.36279	-561.20374	260.13272	165.23546	-528.26062	303.99075	146.25229	-753.93976	102.40443	1848.89221	-700.83398	273.83960	753.16223	-635.17047	88.64640	1434.96802	-518.21991	-72.39450	143.23029	-719.18280	74.14902	217.56441	-814.38428	100.05402	1057.86548	-770.15283	-8.39656	207.02640	-796.74854	51.38452	173.93367	-798.20776	175.03221	183.26643	-776.76392	-34.86273	489.50323	-876.03320	-78.59757	141.50241	-735.35486	250.78514	647.95105	-714.77795	-29.47655	621.21149	-730.43646	-25.65531	569.76624	-680.34894	16.29223	522.18024				-702.47333	78.78020	577.43066	-674.16760	-67.52112	873.79779	-604.68225	-8.75811	806.62128	
202	4.020	-687.17749	205.40472	535.64026	-653.61151	278.77856	879.97949	-713.39624	-49.30080	722.82019	-708.31787	275.05423	1547.60681	-676.57043	52.11290	159.59177	-599.85266	211.73386	818.26721	-740.18964	246.54013	579.23334	-780.89807	256.36258	504.93921	-704.54529	143.31274	576.56561	-739.53925	-72.17976	1549.19092	-664.76355	-70.49648	160.66508	-714.02844	153.77925	217.98648	-772.76569	224.93488	204.66603	-623.14642	-80.56605	157.33276	-882.53406	296.09598	144.57982				-604.17731	17.80794	168.05397	-560.72491	-40.03497	163.18552	-676.45209	174.22485	158.64415	-595.84222	222.56395	173.40289	-666.24683	299.58835	159.43292	-628.71210	307.04068	161.30388	-561.19171	260.20508	165.17743	-528.24219	304.05014	146.45068	-754.26520	102.04521	1848.94641	-700.20459	273.80048	753.29120	-635.03009	88.66058	1434.92700	-518.04126	-72.47298	143.20889	-719.24316	74.11886	217.74577	-812.91595	99.50263	1058.17175	-770.14655	-8.51280	207.18188	-796.54840	51.56094	173.94469	-798.17084	175.17130	183.33464	-776.44855	-34.89883	489.85696	-876.09241	-78.65030	141.32780	-734.68207	251.00073	648.63422	-713.95361	-29.39722	621.63257	-730.11920	-25.86915	569.90924	-679.91351	16.18583	522.19910				-702.13251	78.93640	577.42029	-673.36096	-67.29426	873.31598	-603.69135	-8.44172	806.87238	
